<svg width="16" height="15" viewBox="0 0 16 15" fill="none" xmlns="http://www.w3.org/2000/svg">
<path d="M16 1.36899V13.631C16.0002 13.8121 15.9512 13.9899 15.8583 14.1454C15.7653 14.3008 15.6319 14.4281 15.4722 14.5136C15.3125 14.5992 15.1326 14.6397 14.9517 14.631C14.7708 14.6222 14.5957 14.5645 14.445 14.464L5.245 8.33198C5.10804 8.24066 4.99575 8.11694 4.91808 7.9718C4.84041 7.82666 4.79978 7.6646 4.79978 7.49999C4.79978 7.33537 4.84041 7.17331 4.91808 7.02817C4.99575 6.88303 5.10804 6.75931 5.245 6.66799L14.445 0.536985C14.5956 0.436507 14.7707 0.378797 14.9515 0.370013C15.1323 0.36123 15.3121 0.401701 15.4718 0.487111C15.6314 0.572521 15.7648 0.699664 15.8579 0.854976C15.9509 1.01029 16 1.18794 16 1.36899ZM1 0.499985C0.734784 0.499985 0.48043 0.605342 0.292893 0.792879C0.105357 0.980415 0 1.23477 0 1.49999V13.5C0 13.7652 0.105357 14.0196 0.292893 14.2071C0.48043 14.3946 0.734784 14.5 1 14.5C1.26522 14.5 1.51957 14.3946 1.70711 14.2071C1.89464 14.0196 2 13.7652 2 13.5V1.49999C2 1.23477 1.89464 0.980415 1.70711 0.792879C1.51957 0.605342 1.26522 0.499985 1 0.499985Z" fill="white"/>
</svg>
