<svg width="15" height="9" viewBox="0 0 15 9" fill="none" xmlns="http://www.w3.org/2000/svg">
<path fill-rule="evenodd" clip-rule="evenodd" d="M1.46601 1.00002C1.85054 0.996749 2.22195 1.13973 2.50501 1.40002L7.00501 5.64702L11.497 1.40002C11.7797 1.1395 12.1501 0.994873 12.5345 0.994873C12.9189 0.994873 13.2893 1.1395 13.572 1.40002C13.7077 1.52477 13.816 1.67633 13.8901 1.84511C13.9642 2.01388 14.0024 2.1962 14.0024 2.38052C14.0024 2.56484 13.9642 2.74715 13.8901 2.91592C13.816 3.0847 13.7077 3.23626 13.572 3.36102L8.03701 8.59302C7.75529 8.8547 7.38502 9.00013 7.00051 9.00013C6.61601 9.00013 6.24573 8.8547 5.96401 8.59302L0.431013 3.36602C0.295063 3.24142 0.186509 3.08991 0.112246 2.92112C0.0379831 2.75232 -0.000366211 2.56993 -0.000366211 2.38552C-0.000366211 2.20111 0.0379831 2.01871 0.112246 1.84992C0.186509 1.68112 0.295063 1.52961 0.431013 1.40502C0.711977 1.14334 1.08207 0.998522 1.46601 1.00002Z" fill="white"/>
</svg>
