<svg width="16" height="15" viewBox="0 0 16 15" fill="none" xmlns="http://www.w3.org/2000/svg">
<path d="M6.61571e-07 1.36899V13.631C-0.000207653 13.8121 0.0487828 13.9899 0.141741 14.1454C0.234698 14.3008 0.368132 14.4281 0.527795 14.5136C0.687457 14.5992 0.867351 14.6397 1.04827 14.631C1.22918 14.6222 1.40433 14.5645 1.555 14.464L10.755 8.33198C10.892 8.24066 11.0043 8.11694 11.0819 7.9718C11.1596 7.82666 11.2002 7.6646 11.2002 7.49999C11.2002 7.33537 11.1596 7.17331 11.0819 7.02817C11.0043 6.88303 10.892 6.75931 10.755 6.66799L1.555 0.536985C1.4044 0.436507 1.22935 0.378797 1.04852 0.370013C0.867688 0.36123 0.687865 0.401701 0.528236 0.487111C0.368606 0.572521 0.235157 0.699664 0.142126 0.854976C0.0490957 1.01029 -2.64334e-05 1.18794 6.61571e-07 1.36899ZM15 0.499985C15.2652 0.499985 15.5196 0.605342 15.7071 0.792879C15.8946 0.980415 16 1.23477 16 1.49999V13.5C16 13.7652 15.8946 14.0196 15.7071 14.2071C15.5196 14.3946 15.2652 14.5 15 14.5C14.7348 14.5 14.4804 14.3946 14.2929 14.2071C14.1054 14.0196 14 13.7652 14 13.5V1.49999C14 1.23477 14.1054 0.980415 14.2929 0.792879C14.4804 0.605342 14.7348 0.499985 15 0.499985Z" fill="white"/>
</svg>
