<svg width="21" height="24" viewBox="0 0 21 24" fill="none" xmlns="http://www.w3.org/2000/svg">
<path d="M20.444 16.575L18.221 13.992C18.0439 13.8149 17.9035 13.6045 17.8077 13.3731C17.712 13.1416 17.6628 12.8935 17.663 12.643V10.443C17.6091 8.63689 16.8755 6.91765 15.6089 5.62897C14.3423 4.34028 12.6359 3.57712 10.831 3.49202C8.98463 3.42481 7.18606 4.08748 5.82467 5.33658C4.46327 6.58567 3.6486 8.32069 3.55701 10.166V12.643C3.55721 12.8935 3.50803 13.1416 3.41228 13.3731C3.31654 13.6045 3.1761 13.8149 2.99901 13.992L0.81601 16.575C0.68319 16.7087 0.592907 16.8788 0.556531 17.0637C0.520155 17.2486 0.539311 17.4402 0.611588 17.6143C0.683865 17.7883 0.806031 17.9371 0.9627 18.0419C1.11937 18.1466 1.30354 18.2027 1.49201 18.203H19.77C19.9587 18.203 20.1432 18.147 20.3001 18.0421C20.457 17.9372 20.5792 17.7881 20.6514 17.6138C20.7235 17.4394 20.7423 17.2475 20.7054 17.0624C20.6685 16.8774 20.5775 16.7074 20.444 16.574V16.575Z" fill="white"/>
<path d="M6.948 20.146C7.11078 20.9876 7.57344 21.7414 8.25007 22.2676C8.92669 22.7938 9.77129 23.0565 10.627 23.007C11.4828 23.0566 12.3276 22.7939 13.0043 22.2677C13.6811 21.7415 14.144 20.9876 14.307 20.146H6.948Z" fill="white"/>
<path d="M17 8.98801C19.2091 8.98801 21 7.19715 21 4.98801C21 2.77887 19.2091 0.988007 17 0.988007C14.7909 0.988007 13 2.77887 13 4.98801C13 7.19715 14.7909 8.98801 17 8.98801Z" fill="#F25042"/>
<path d="M17 8.48801C18.933 8.48801 20.5 6.921 20.5 4.98801C20.5 3.05501 18.933 1.48801 17 1.48801C15.067 1.48801 13.5 3.05501 13.5 4.98801C13.5 6.921 15.067 8.48801 17 8.48801Z" stroke="white"/>
</svg>
