<svg width="13" height="17" viewBox="0 0 13 17" fill="none" xmlns="http://www.w3.org/2000/svg">
<path d="M12.191 9.32199L1.94803 16.414C1.79793 16.5178 1.62228 16.5786 1.44009 16.5898C1.25791 16.6009 1.07615 16.562 0.914515 16.4772C0.752879 16.3924 0.61753 16.265 0.523137 16.1088C0.428744 15.9526 0.378908 15.7735 0.379029 15.591V1.40899C0.378908 1.22646 0.428744 1.04739 0.523137 0.89117C0.61753 0.73495 0.752879 0.607544 0.914515 0.522759C1.07615 0.437975 1.25791 0.399046 1.44009 0.410192C1.62228 0.421337 1.79793 0.482132 1.94803 0.585988L12.191 7.67799C12.3239 7.77002 12.4324 7.89287 12.5074 8.03603C12.5824 8.17919 12.6215 8.33839 12.6215 8.49999C12.6215 8.66159 12.5824 8.82079 12.5074 8.96395C12.4324 9.1071 12.3239 9.22996 12.191 9.32199Z" fill="#18FF6D"/>
</svg>
