<svg width="18" height="17" viewBox="0 0 18 17" fill="none" xmlns="http://www.w3.org/2000/svg">
<path d="M17.753 11.754C17.9111 11.9123 17.9999 12.1268 17.9999 12.3505C17.9999 12.5742 17.9111 12.7888 17.753 12.947L14.94 15.759C14.8217 15.877 14.6711 15.9572 14.5072 15.9895C14.3434 16.0218 14.1736 16.0047 14.0194 15.9405C13.8652 15.8763 13.7335 15.7677 13.6411 15.6286C13.5486 15.4895 13.4995 15.3261 13.5 15.159V13.757H11.433C11.3752 13.757 11.3181 13.745 11.2651 13.722C11.2121 13.6989 11.1644 13.6652 11.125 13.623L8.64401 10.965L10.519 8.95601L12.375 10.944H13.5V9.53901C13.4995 9.37198 13.5486 9.20856 13.6411 9.06944C13.7335 8.93033 13.8652 8.82177 14.0194 8.75753C14.1736 8.69328 14.3434 8.67624 14.5072 8.70854C14.6711 8.74085 14.8217 8.82106 14.94 8.93901L17.753 11.751V11.754ZM0.422011 5.32001H3.37501L5.23101 7.30801L7.10601 5.29901L4.62501 2.64101C4.58558 2.59878 4.5379 2.5651 4.48492 2.54205C4.43194 2.519 4.37479 2.50708 4.31701 2.50701H0.422011C0.36634 2.50701 0.311218 2.51803 0.259822 2.53942C0.208426 2.56082 0.161772 2.59217 0.122546 2.63167C0.0833201 2.67118 0.0522986 2.71805 0.0312683 2.7696C0.0102381 2.82115 -0.000385102 2.87634 1.06645e-05 2.93201V4.89801C1.06645e-05 5.00994 0.0444712 5.11727 0.123612 5.19641C0.202752 5.27555 0.310089 5.32001 0.422011 5.32001ZM13.5 5.32001V6.72501C13.4995 6.89205 13.5486 7.05547 13.6411 7.19459C13.7335 7.3337 13.8652 7.44226 14.0194 7.5065C14.1736 7.57074 14.3434 7.58779 14.5072 7.55549C14.6711 7.52318 14.8217 7.44297 14.94 7.32501L17.753 4.51301C17.9111 4.35476 17.9999 4.14021 17.9999 3.91651C17.9999 3.69282 17.9111 3.47827 17.753 3.32001L14.94 0.505015C14.8217 0.387059 14.6711 0.30685 14.5072 0.274543C14.3434 0.242236 14.1736 0.259284 14.0194 0.323529C13.8652 0.387774 13.7335 0.496327 13.6411 0.635442C13.5486 0.774557 13.4995 0.937978 13.5 1.10501V2.50701H11.433C11.3752 2.50708 11.3181 2.519 11.2651 2.54205C11.2121 2.5651 11.1644 2.59878 11.125 2.64101L3.37501 10.941H0.422011C0.36634 10.941 0.311218 10.952 0.259822 10.9734C0.208426 10.9948 0.161772 11.0262 0.122546 11.0657C0.0833201 11.1052 0.0522986 11.1521 0.0312683 11.2036C0.0102381 11.2551 -0.000385102 11.3103 1.06645e-05 11.366V13.332C1.06645e-05 13.4439 0.0444712 13.5513 0.123612 13.6304C0.202752 13.7096 0.310089 13.754 0.422011 13.754H4.31701C4.37479 13.754 4.43194 13.742 4.48492 13.719C4.5379 13.6959 4.58558 13.6622 4.62501 13.62L12.375 5.32001H13.5Z" fill="white"/>
</svg>
