<svg width="17" height="17" viewBox="0 0 17 17" fill="none" xmlns="http://www.w3.org/2000/svg">
<path opacity="0.55" d="M15.111 2.833H1.889V0.944C1.889 0.693636 1.98846 0.453526 2.16549 0.276491C2.34253 0.0994568 2.58264 0 2.833 0H14.167C14.4174 0 14.6575 0.0994568 14.8345 0.276491C15.0115 0.453526 15.111 0.693636 15.111 0.944V2.833ZM17 5.667V16.056C17 16.3064 16.9005 16.5465 16.7235 16.7235C16.5465 16.9005 16.3064 17 16.056 17H0.944C0.693636 17 0.453526 16.9005 0.276491 16.7235C0.0994568 16.5465 0 16.3064 0 16.056V5.667C0 5.41664 0.0994568 5.17653 0.276491 4.99949C0.453526 4.82246 0.693636 4.723 0.944 4.723H16.056C16.3064 4.723 16.5465 4.82246 16.7235 4.99949C16.9005 5.17653 17 5.41664 17 5.667ZM10.389 8.618C10.389 8.3675 10.2895 8.12727 10.1124 7.95014C9.93523 7.77301 9.695 7.6735 9.4445 7.6735C9.194 7.6735 8.95377 7.77301 8.77664 7.95014C8.59951 8.12727 8.5 8.3675 8.5 8.618V10.271C8.12639 10.271 7.76117 10.3818 7.45053 10.5894C7.13988 10.7969 6.89777 11.0919 6.75479 11.4371C6.61182 11.7823 6.57441 12.1621 6.6473 12.5285C6.72018 12.895 6.90009 13.2315 7.16428 13.4957C7.42846 13.7599 7.76504 13.9398 8.13147 14.0127C8.4979 14.0856 8.87772 14.0482 9.22289 13.9052C9.56806 13.7622 9.86308 13.5201 10.0706 13.2095C10.2782 12.8988 10.389 12.5336 10.389 12.16V8.618Z" fill="white"/>
</svg>
