<svg width="17" height="20" viewBox="0 0 17 20" fill="none" xmlns="http://www.w3.org/2000/svg">
<path opacity="0.55" d="M0 16.392V15.012C0.0256532 14.5092 0.188278 14.023 0.470285 13.606C0.752292 13.189 1.14295 12.857 1.6 12.646C5.99213 10.8818 10.8959 10.8818 15.288 12.646C15.7451 12.857 16.1357 13.189 16.4177 13.606C16.6997 14.023 16.8623 14.5092 16.888 15.012V16.392C16.8879 16.7619 16.8148 17.1282 16.6731 17.4699C16.5313 17.8115 16.3235 18.1219 16.0617 18.3833C15.7999 18.6446 15.4892 18.8518 15.1473 18.993C14.8053 19.1341 14.4389 19.2065 14.069 19.206H2.819C2.44908 19.2065 2.08268 19.1341 1.74075 18.993C1.39882 18.8518 1.08807 18.6446 0.826262 18.3833C0.564454 18.1219 0.356724 17.8115 0.214948 17.4699C0.0731724 17.1282 0.000131038 16.7619 0 16.392ZM8.443 4.26409e-07C7.51488 -0.00039517 6.6075 0.274475 5.83562 0.789842C5.06374 1.30521 4.46204 2.03792 4.10664 2.89529C3.75123 3.75267 3.65809 4.69619 3.83898 5.60651C4.01988 6.51682 4.46669 7.35304 5.1229 8.00939C5.77911 8.66574 6.61523 9.11273 7.52551 9.29382C8.43579 9.47491 9.37933 9.38197 10.2368 9.02675C11.0942 8.67153 11.8271 8.06999 12.3426 7.29822C12.8581 6.52645 13.1332 5.61912 13.133 4.691C13.1327 3.44712 12.6386 2.25426 11.7591 1.37461C10.8796 0.494962 9.68688 0.00053061 8.443 4.26409e-07Z" fill="white"/>
</svg>
