<svg width="17" height="17" viewBox="0 0 17 17" fill="none" xmlns="http://www.w3.org/2000/svg">
<path opacity="0.55" d="M8.5 0C6.81886 0 5.17547 0.498516 3.77766 1.43251C2.37984 2.3665 1.29037 3.69402 0.647028 5.24719C0.00368291 6.80036 -0.164645 8.50943 0.163329 10.1583C0.491303 11.8071 1.30085 13.3217 2.4896 14.5104C3.67834 15.6992 5.1929 16.5087 6.84174 16.8367C8.49057 17.1646 10.1996 16.9963 11.7528 16.353C13.306 15.7096 14.6335 14.6202 15.5675 13.2223C16.5015 11.8245 17 10.1811 17 8.5C17 6.24566 16.1045 4.08365 14.5104 2.48959C12.9164 0.895533 10.7543 0 8.5 0ZM3.016 8.5H1.916C1.91759 6.75458 2.61187 5.08114 3.84635 3.84723C5.08083 2.61331 6.75458 1.91979 8.5 1.919V3.019C7.04664 3.02085 5.6533 3.59881 4.62533 4.62621C3.59737 5.65361 3.01865 7.04664 3.016 8.5ZM8.5 11.791C7.8493 11.791 7.21322 11.598 6.67218 11.2365C6.13114 10.875 5.70945 10.3612 5.46044 9.76003C5.21143 9.15886 5.14627 8.49735 5.27322 7.85915C5.40017 7.22096 5.71351 6.63473 6.17362 6.17462C6.63374 5.7145 7.21996 5.40116 7.85816 5.27422C8.49635 5.14727 9.15786 5.21242 9.75903 5.46144C10.3602 5.71045 10.874 6.13214 11.2355 6.67317C11.597 7.21421 11.79 7.8503 11.79 8.501C11.7897 9.37348 11.443 10.2102 10.8261 10.8271C10.2092 11.444 9.37249 11.7907 8.5 11.791ZM8.5 7.404C8.28244 7.404 8.06977 7.46851 7.88888 7.58938C7.70798 7.71025 7.56699 7.88205 7.48374 8.08305C7.40048 8.28405 7.3787 8.50522 7.42114 8.7186C7.46358 8.93198 7.56835 9.12798 7.72219 9.28182C7.87602 9.43566 8.07203 9.54042 8.2854 9.58286C8.49878 9.62531 8.71996 9.60352 8.92096 9.52027C9.12195 9.43701 9.29375 9.29602 9.41462 9.11513C9.53549 8.93423 9.6 8.72156 9.6 8.504C9.60014 8.35946 9.57178 8.21631 9.51656 8.08274C9.46134 7.94917 9.38033 7.82779 9.27818 7.72554C9.17602 7.62329 9.05471 7.54217 8.92119 7.48683C8.78766 7.43149 8.64454 7.403 8.5 7.403V7.404Z" fill="white"/>
</svg>
