<svg width="19" height="19" viewBox="0 0 19 19" fill="none" xmlns="http://www.w3.org/2000/svg">
<path fill-rule="evenodd" clip-rule="evenodd" d="M14.42 18.025C15.133 18.025 15.83 17.8136 16.4228 17.4174C17.0157 17.0213 17.4777 16.4583 17.7506 15.7996C18.0234 15.1408 18.0948 14.416 17.9557 13.7167C17.8166 13.0174 17.4733 12.3751 16.9691 11.8709C16.465 11.3667 15.8226 11.0234 15.1233 10.8843C14.424 10.7452 13.6992 10.8166 13.0404 11.0894C12.3817 11.3623 11.8187 11.8243 11.4226 12.4172C11.0264 13.01 10.815 13.707 10.815 14.42C10.815 15.3761 11.1948 16.2931 11.8709 16.9691C12.5469 17.6452 13.4639 18.025 14.42 18.025ZM14.42 7.21C15.133 7.21 15.83 6.99857 16.4228 6.60245C17.0157 6.20633 17.4777 5.6433 17.7506 4.98458C18.0234 4.32585 18.0948 3.601 17.9557 2.9017C17.8166 2.2024 17.4733 1.56005 16.9691 1.05588C16.465 0.551713 15.8226 0.20837 15.1233 0.0692707C14.424 -0.069829 13.6992 0.001562 13.0404 0.274416C12.3817 0.54727 11.8187 1.00933 11.4226 1.60217C11.0264 2.19501 10.815 2.892 10.815 3.605C10.815 4.56111 11.1948 5.47805 11.8709 6.15412C12.5469 6.83019 13.4639 7.21 14.42 7.21ZM3.605 18.025C4.318 18.025 5.01499 17.8136 5.60783 17.4174C6.20067 17.0213 6.66273 16.4583 6.93559 15.7996C7.20844 15.1408 7.27983 14.416 7.14073 13.7167C7.00163 13.0174 6.65829 12.3751 6.15412 11.8709C5.64995 11.3667 5.0076 11.0234 4.3083 10.8843C3.609 10.7452 2.88415 10.8166 2.22543 11.0894C1.5667 11.3623 1.00367 11.8243 0.607552 12.4172C0.21143 13.01 0 13.707 0 14.42C0 15.3761 0.379811 16.2931 1.05588 16.9691C1.73195 17.6452 2.64889 18.025 3.605 18.025ZM3.605 7.21C4.318 7.21 5.01499 6.99857 5.60783 6.60245C6.20067 6.20633 6.66273 5.6433 6.93559 4.98458C7.20844 4.32585 7.27983 3.601 7.14073 2.9017C7.00163 2.2024 6.65829 1.56005 6.15412 1.05588C5.64995 0.551713 5.0076 0.20837 4.3083 0.0692707C3.609 -0.069829 2.88415 0.001562 2.22543 0.274416C1.5667 0.54727 1.00367 1.00933 0.607552 1.60217C0.21143 2.19501 0 2.892 0 3.605C0 4.56111 0.379811 5.47805 1.05588 6.15412C1.73195 6.83019 2.64889 7.21 3.605 7.21Z" fill="white"/>
</svg>
