<svg width="19" height="18" viewBox="0 0 19 18" fill="none" xmlns="http://www.w3.org/2000/svg">
<path opacity="0.55" d="M9.582 10.012C9.582 10.1373 9.55732 10.2613 9.50938 10.3771C9.46144 10.4928 9.39117 10.598 9.30258 10.6866C9.21399 10.7752 9.10882 10.8454 8.99308 10.8934C8.87733 10.9413 8.75328 10.966 8.628 10.966H1.954C1.82619 10.9701 1.69884 10.9485 1.57954 10.9025C1.46024 10.8564 1.35142 10.7869 1.25954 10.6979C1.16767 10.609 1.09461 10.5024 1.04472 10.3847C0.994826 10.267 0.969116 10.1404 0.969116 10.0125C0.969116 9.88462 0.994826 9.75804 1.04472 9.6403C1.09461 9.52255 1.16767 9.41604 1.25954 9.32709C1.35142 9.23814 1.46024 9.16857 1.57954 9.12251C1.69884 9.07646 1.82619 9.05486 1.954 9.059H8.629C8.88167 9.05927 9.12391 9.15975 9.30258 9.33842C9.48125 9.51709 9.58173 9.75933 9.582 10.012ZM7.675 15.257H1.954C1.70646 15.265 1.47174 15.369 1.29947 15.5469C1.1272 15.7249 1.03088 15.9628 1.03088 16.2105C1.03088 16.4582 1.1272 16.6961 1.29947 16.8741C1.47174 17.052 1.70646 17.156 1.954 17.164H7.675C7.92254 17.156 8.15726 17.052 8.32953 16.8741C8.5018 16.6961 8.59812 16.4582 8.59812 16.2105C8.59812 15.9628 8.5018 15.7249 8.32953 15.5469C8.15726 15.369 7.92254 15.265 7.675 15.257ZM1.954 4.768H13.4C13.5278 4.77214 13.6552 4.75054 13.7745 4.70449C13.8938 4.65843 14.0026 4.58886 14.0945 4.49991C14.1863 4.41096 14.2594 4.30445 14.3093 4.1867C14.3592 4.06896 14.3849 3.94238 14.3849 3.8145C14.3849 3.68662 14.3592 3.56004 14.3093 3.4423C14.2594 3.32455 14.1863 3.21804 14.0945 3.12909C14.0026 3.04014 13.8938 2.97057 13.7745 2.92451C13.6552 2.87846 13.5278 2.85686 13.4 2.861H1.954C1.82619 2.85686 1.69884 2.87846 1.57954 2.92451C1.46024 2.97057 1.35142 3.04014 1.25954 3.12909C1.16767 3.21804 1.09461 3.32455 1.04472 3.4423C0.994826 3.56004 0.969116 3.68662 0.969116 3.8145C0.969116 3.94238 0.994826 4.06896 1.04472 4.1867C1.09461 4.30445 1.16767 4.41096 1.25954 4.49991C1.35142 4.58886 1.46024 4.65843 1.57954 4.70449C1.69884 4.75054 1.82619 4.77214 1.954 4.768ZM17.21 0C16.957 0 16.7143 0.10051 16.5354 0.27942C16.3565 0.45833 16.256 0.700983 16.256 0.954V10.065C15.6788 9.72204 15.0204 9.53942 14.349 9.536C13.5947 9.536 12.8573 9.75969 12.2301 10.1788C11.6028 10.5979 11.114 11.1935 10.8253 11.8904C10.5366 12.5874 10.4611 13.3542 10.6083 14.0941C10.7554 14.8339 11.1187 15.5135 11.6521 16.0469C12.1855 16.5803 12.8651 16.9436 13.6049 17.0907C14.3448 17.2379 15.1116 17.1623 15.8086 16.8737C16.5055 16.585 17.1011 16.0962 17.5202 15.4689C17.9393 14.8417 18.163 14.1043 18.163 13.35V0.954C18.163 0.701157 18.0626 0.458654 17.8839 0.279773C17.7052 0.100892 17.4628 0.000265035 17.21 0Z" fill="white"/>
</svg>
