<svg width="31" height="29" viewBox="0 0 31 29" fill="none" xmlns="http://www.w3.org/2000/svg">
<path d="M30.752 23.404C30.752 23.8571 30.572 24.2917 30.2516 24.6121C29.9312 24.9325 29.4966 25.1125 29.0435 25.1125C28.5904 25.1125 28.1558 24.9325 27.8354 24.6121C27.515 24.2917 27.335 23.8571 27.335 23.404V20.504C27.335 20.0509 27.155 19.6163 26.8346 19.2959C26.5142 18.9755 26.0796 18.7955 25.6265 18.7955C25.1734 18.7955 24.7388 18.9755 24.4184 19.2959C24.098 19.6163 23.918 20.0509 23.918 20.504V26.904C23.918 27.3571 23.738 27.7917 23.4176 28.1121C23.0972 28.4325 22.6626 28.6125 22.2095 28.6125C21.7564 28.6125 21.3218 28.4325 21.0014 28.1121C20.681 27.7917 20.501 27.3571 20.501 26.904V18.986C20.501 18.5329 20.321 18.0983 20.0006 17.7779C19.6802 17.4575 19.2456 17.2775 18.7925 17.2775C18.3394 17.2775 17.9048 17.4575 17.5844 17.7779C17.264 18.0983 17.084 18.5329 17.084 18.986V23.403C17.084 23.8561 16.904 24.2907 16.5836 24.6111C16.2632 24.9315 15.8286 25.1115 15.3755 25.1115C14.9224 25.1115 14.4878 24.9315 14.1674 24.6111C13.847 24.2907 13.667 23.8561 13.667 23.403V22.522C13.667 22.0689 13.487 21.6343 13.1666 21.3139C12.8462 20.9935 12.4116 20.8135 11.9585 20.8135C11.5054 20.8135 11.0708 20.9935 10.7504 21.3139C10.43 21.6343 10.25 22.0689 10.25 22.522V25.74C10.25 26.1931 10.07 26.6277 9.74959 26.9481C9.42918 27.2685 8.99462 27.4485 8.54149 27.4485C8.08837 27.4485 7.65381 27.2685 7.3334 26.9481C7.013 26.6277 6.83299 26.1931 6.83299 25.74V20.832C6.83299 20.3789 6.65299 19.9443 6.33258 19.6239C6.01218 19.3035 5.57761 19.1235 5.12449 19.1235C4.67137 19.1235 4.23681 19.3035 3.9164 19.6239C3.59599 19.9443 3.41599 20.3789 3.41599 20.832V23.401C3.41599 23.8541 3.23599 24.2887 2.91559 24.6091C2.59518 24.9295 2.16062 25.1095 1.70749 25.1095C1.25437 25.1095 0.819807 24.9295 0.499401 24.6091C0.178995 24.2887 -0.00100708 23.8541 -0.00100708 23.401V10.631C-0.00100708 10.1779 0.178995 9.74333 0.499401 9.42292C0.819807 9.10251 1.25437 8.92251 1.70749 8.92251C2.16062 8.92251 2.59518 9.10251 2.91559 9.42292C3.23599 9.74333 3.41599 10.1779 3.41599 10.631V12.344C3.41599 12.7971 3.59599 13.2317 3.9164 13.5521C4.23681 13.8725 4.67137 14.0525 5.12449 14.0525C5.57761 14.0525 6.01218 13.8725 6.33258 13.5521C6.65299 13.2317 6.83299 12.7971 6.83299 12.344V7.82101C6.83299 7.36789 7.013 6.93333 7.3334 6.61292C7.65381 6.29251 8.08837 6.11251 8.54149 6.11251C8.99462 6.11251 9.42918 6.29251 9.74959 6.61292C10.07 6.93333 10.25 7.36789 10.25 7.82101V13.833C10.25 14.2861 10.43 14.7207 10.7504 15.0411C11.0708 15.3615 11.5054 15.5415 11.9585 15.5415C12.4116 15.5415 12.8462 15.3615 13.1666 15.0411C13.487 14.7207 13.667 14.2861 13.667 13.833V1.70801C13.667 1.48365 13.7112 1.26148 13.797 1.0542C13.8829 0.846912 14.0088 0.658569 14.1674 0.49992C14.326 0.341271 14.5144 0.215424 14.7217 0.129564C14.929 0.0437034 15.1511 -0.000488281 15.3755 -0.000488281C15.5999 -0.000488281 15.822 0.0437034 16.0293 0.129564C16.2366 0.215424 16.4249 0.341271 16.5836 0.49992C16.7422 0.658569 16.8681 0.846912 16.9539 1.0542C17.0398 1.26148 17.084 1.48365 17.084 1.70801V9.03801C17.084 9.49113 17.264 9.9257 17.5844 10.2461C17.9048 10.5665 18.3394 10.7465 18.7925 10.7465C19.2456 10.7465 19.6802 10.5665 20.0006 10.2461C20.321 9.9257 20.501 9.49113 20.501 9.03801V7.15901C20.501 6.70589 20.681 6.27133 21.0014 5.95092C21.3218 5.63051 21.7564 5.45051 22.2095 5.45051C22.6626 5.45051 23.0972 5.63051 23.4176 5.95092C23.738 6.27133 23.918 6.70589 23.918 7.15901V12.345C23.918 12.7981 24.098 13.2327 24.4184 13.5531C24.7388 13.8735 25.1734 14.0535 25.6265 14.0535C26.0796 14.0535 26.5142 13.8735 26.8346 13.5531C27.155 13.2327 27.335 12.7981 27.335 12.345V10.631C27.335 10.1779 27.515 9.74333 27.8354 9.42292C28.1558 9.10251 28.5904 8.92251 29.0435 8.92251C29.4966 8.92251 29.9312 9.10251 30.2516 9.42292C30.572 9.74333 30.752 10.1779 30.752 10.631V23.403V23.404Z" fill="url(#paint0_linear_5_569)"/>
<defs>
<linearGradient id="paint0_linear_5_569" x1="37.3024" y1="5.09263" x2="-22.8686" y2="37.9888" gradientUnits="userSpaceOnUse">
<stop stop-color="#18FF6D"/>
<stop offset="1" stop-color="#2EB542"/>
</linearGradient>
</defs>
</svg>
