<svg width="13" height="13" viewBox="0 0 13 13" fill="none" xmlns="http://www.w3.org/2000/svg">
<path d="M11.518 4.875H7.531V0.886C7.531 0.651018 7.43765 0.425661 7.2715 0.259503C7.10534 0.0933461 6.87998 0 6.645 0H5.759C5.52402 0 5.29866 0.0933461 5.1325 0.259503C4.96635 0.425661 4.873 0.651018 4.873 0.886V4.875H0.886C0.651364 4.875 0.426309 4.96807 0.260209 5.1338C0.0941096 5.29952 0.000529652 5.52436 0 5.759L0 6.645C0 6.87998 0.0933462 7.10534 0.259503 7.2715C0.425661 7.43765 0.651018 7.531 0.886 7.531H4.873V11.518C4.873 11.753 4.96635 11.9783 5.1325 12.1445C5.29866 12.3107 5.52402 12.404 5.759 12.404H6.645C6.87998 12.404 7.10534 12.3107 7.2715 12.1445C7.43765 11.9783 7.531 11.753 7.531 11.518V7.531H11.518C11.7523 7.52994 11.9766 7.43613 12.1419 7.27009C12.3072 7.10404 12.4 6.87929 12.4 6.645V5.759C12.3995 5.52506 12.3064 5.30082 12.1412 5.1352C11.976 4.96959 11.7519 4.87606 11.518 4.875V4.875Z" fill="#18FF6D"/>
</svg>
