<svg width="17" height="14" viewBox="0 0 17 14" fill="none" xmlns="http://www.w3.org/2000/svg">
<path opacity="0.55" d="M12.75 7.65C12.75 7.81811 12.7001 7.98245 12.6067 8.12223C12.5134 8.26202 12.3806 8.37096 12.2253 8.4353C12.07 8.49963 11.8991 8.51647 11.7342 8.48367C11.5693 8.45087 11.4178 8.36992 11.299 8.25104C11.1801 8.13217 11.0991 7.98071 11.0663 7.81583C11.0335 7.65094 11.0504 7.48004 11.1147 7.32472C11.179 7.1694 11.288 7.03665 11.4278 6.94325C11.5675 6.84985 11.7319 6.8 11.9 6.8C12.1254 6.8 12.3416 6.88955 12.501 7.04896C12.6604 7.20836 12.75 7.42457 12.75 7.65ZM9.506 6.8H7.494C7.70253 7.34748 7.70253 7.95252 7.494 8.5H9.507C9.29815 7.95264 9.29779 7.3476 9.506 6.8ZM5.1 6.8C4.93189 6.8 4.76755 6.84985 4.62777 6.94325C4.48798 7.03665 4.37904 7.1694 4.3147 7.32472C4.25037 7.48004 4.23354 7.65094 4.26633 7.81583C4.29913 7.98071 4.38008 8.13217 4.49896 8.25104C4.61783 8.36992 4.76929 8.45087 4.93417 8.48367C5.09906 8.51647 5.26996 8.49963 5.42528 8.4353C5.5806 8.37096 5.71335 8.26202 5.80675 8.12223C5.90015 7.98245 5.95 7.81811 5.95 7.65C5.95 7.42457 5.86045 7.20836 5.70104 7.04896C5.54164 6.88955 5.32543 6.8 5.1 6.8ZM17 0.85V12.75C17 12.9754 16.9104 13.1916 16.751 13.351C16.5916 13.5104 16.3754 13.6 16.15 13.6H0.85C0.624566 13.6 0.408365 13.5104 0.248959 13.351C0.0895534 13.1916 0 12.9754 0 12.75V0.85C0 0.624566 0.0895534 0.408365 0.248959 0.248959C0.408365 0.0895531 0.624566 0 0.85 0H16.15C16.3754 0 16.5916 0.0895531 16.751 0.248959C16.9104 0.408365 17 0.624566 17 0.85ZM5.1 1.7L6.46 3.4H10.54L11.9 1.7H5.1ZM14.45 7.65C14.45 6.9737 14.1813 6.3251 13.7031 5.84688C13.2249 5.36866 12.5763 5.1 11.9 5.1H5.1C4.4237 5.1 3.7751 5.36866 3.29688 5.84688C2.81866 6.3251 2.55 6.9737 2.55 7.65C2.55 8.3263 2.81866 8.9749 3.29688 9.45312C3.7751 9.93134 4.4237 10.2 5.1 10.2H11.9C12.5763 10.2 13.2249 9.93134 13.7031 9.45312C14.1813 8.9749 14.45 8.3263 14.45 7.65Z" fill="white"/>
</svg>
