<svg width="18" height="18" viewBox="0 0 18 18" fill="none" xmlns="http://www.w3.org/2000/svg">
<g opacity="0.55">
<path opacity="0.55" d="M0.482007 4.82299V4.83799L7.87101 8.20799H7.87901C8.09832 8.30983 8.33721 8.3626 8.57901 8.3626C8.82081 8.3626 9.0597 8.30983 9.27901 8.20799H9.28701L16.676 4.83799V4.82299C16.8123 4.77818 16.9316 4.69256 17.0176 4.57773C17.1036 4.4629 17.1523 4.3244 17.157 4.18099C17.1523 4.0365 17.1029 3.89702 17.0157 3.7817C16.9285 3.66639 16.8077 3.58091 16.67 3.53699L9.29301 0.154993H9.27901C9.05981 0.0527534 8.82088 -0.000228882 8.57901 -0.000228882C8.33714 -0.000228882 8.09821 0.0527534 7.87901 0.154993H7.86501L0.488007 3.53699C0.350266 3.58091 0.229501 3.66639 0.142301 3.7817C0.0551 3.89702 0.00574209 4.0365 0.00100708 4.18099C0.0057184 4.3244 0.0543861 4.4629 0.14042 4.57773C0.226454 4.69256 0.345699 4.77818 0.482007 4.82299Z" fill="white"/>
<path opacity="0.55" d="M16.67 8.122L15.226 7.459C12.963 8.495 9.86899 9.903 9.832 9.918C9.02909 10.2365 8.1349 10.2365 7.33199 9.918C7.29199 9.903 4.203 8.497 1.94099 7.46L0.487995 8.122C0.350213 8.16285 0.229248 8.24698 0.143007 8.36194C0.0567666 8.47689 0.00983572 8.61656 0.00916262 8.76027C0.00848951 8.90398 0.05411 9.04408 0.13927 9.15984C0.22443 9.2756 0.344602 9.36086 0.481995 9.403V9.417L7.87099 12.793H7.87899C8.0983 12.8948 8.33719 12.9476 8.57899 12.9476C8.8208 12.9476 9.05969 12.8948 9.27899 12.793H9.28699L16.676 9.421V9.403C16.8156 9.36291 16.9383 9.27849 17.0257 9.16249C17.113 9.0465 17.1603 8.90522 17.1603 8.76C17.1603 8.61478 17.113 8.4735 17.0257 8.35751C16.9383 8.24151 16.8156 8.15709 16.676 8.117L16.67 8.122Z" fill="white"/>
<path opacity="0.55" d="M16.67 12.71L15.226 12.047C12.963 13.084 9.869 14.494 9.832 14.506C9.02941 14.8261 8.13459 14.8261 7.332 14.506C7.297 14.495 4.208 13.086 1.947 12.049L0.493996 12.71C0.354392 12.7498 0.231479 12.8338 0.14375 12.9494C0.0560208 13.0651 0.00822184 13.2061 0.00754513 13.3512C0.00686842 13.4964 0.0533506 13.6378 0.139998 13.7543C0.226644 13.8708 0.348769 13.9559 0.487996 13.997V14.011L7.877 17.381H7.885C8.1043 17.4828 8.34319 17.5356 8.585 17.5356C8.8268 17.5356 9.06569 17.4828 9.285 17.381H9.293L16.682 14.011V13.997C16.8214 13.9566 16.9439 13.872 17.0311 13.7559C17.1183 13.6399 17.1654 13.4986 17.1654 13.3535C17.1654 13.2083 17.1183 13.0671 17.0311 12.9511C16.9439 12.835 16.8214 12.7504 16.682 12.71H16.67Z" fill="white"/>
</g>
</svg>
